<svg xmlns="http://www.w3.org/2000/svg" width="900" height="900" viewBox="0 0 900 900">
<rect width="900" height="900" fill="#0A0B09"/>
<path d="M468.3,395.9L385.5,424.8L378.2,495.2L453.7,536.8L536.4,507.9L543.7,437.5Z" fill="#B4FF0D" fill-opacity="0.30" stroke="#B4FF0D" stroke-opacity="0.5"/><path d="M288.2,594.5L205.5,623.4L198.2,693.8L273.6,735.4L356.3,706.5L363.6,636.1Z" fill="#B4FF0D" fill-opacity="0.30" stroke="#B4FF0D" stroke-opacity="0.5"/><path d="M446.3,607.2L363.6,636.1L356.3,706.5L431.7,748.0L514.5,719.2L521.8,648.7Z" fill="#B4FF0D" fill-opacity="0.30" stroke="#B4FF0D" stroke-opacity="0.5"/><path d="M378.2,495.2L295.5,524.1L288.2,594.5L363.6,636.1L446.3,607.2L453.7,536.8Z" fill="#B4FF0D" fill-opacity="0.30" stroke="#B4FF0D" stroke-opacity="0.5"/><path d="M536.4,507.9L453.7,536.8L446.3,607.2L521.8,648.7L604.5,619.9L611.8,549.4Z" fill="#B4FF0D" fill-opacity="0.30" stroke="#B4FF0D" stroke-opacity="0.5"/>
<path d="M310.1,383.2L227.4,412.1L220.1,482.5L295.5,524.1L378.2,495.2L385.5,424.8Z" fill="#B4FF0D" fill-opacity="0.13" stroke="#B4FF0D" stroke-opacity="0.35"/><path d="M400.1,283.9L317.4,312.8L310.1,383.2L385.5,424.8L468.3,395.9L475.6,325.5Z" fill="#B4FF0D" fill-opacity="0.13" stroke="#B4FF0D" stroke-opacity="0.35"/><path d="M558.3,296.6L475.6,325.5L468.3,395.9L543.7,437.5L626.4,408.6L633.7,338.2Z" fill="#B4FF0D" fill-opacity="0.13" stroke="#B4FF0D" stroke-opacity="0.35"/><path d="M626.4,408.6L543.7,437.5L536.4,507.9L611.8,549.4L694.5,520.6L701.8,450.1Z" fill="#B4FF0D" fill-opacity="0.13" stroke="#B4FF0D" stroke-opacity="0.35"/><path d="M716.5,309.3L633.7,338.2L626.4,408.6L701.8,450.1L784.6,421.3L791.9,350.8Z" fill="#B4FF0D" fill-opacity="0.13" stroke="#B4FF0D" stroke-opacity="0.35"/><path d="M784.6,421.3L701.8,450.1L694.5,520.6L770.0,562.1L852.7,533.2L860.0,462.8Z" fill="#B4FF0D" fill-opacity="0.13" stroke="#B4FF0D" stroke-opacity="0.35"/><path d="M694.5,520.6L611.8,549.4L604.5,619.9L679.9,661.4L762.7,632.5L770.0,562.1Z" fill="#B4FF0D" fill-opacity="0.13" stroke="#B4FF0D" stroke-opacity="0.35"/><path d="M762.7,632.5L679.9,661.4L672.6,731.8L748.0,773.4L830.8,744.5L838.1,674.1Z" fill="#B4FF0D" fill-opacity="0.13" stroke="#B4FF0D" stroke-opacity="0.35"/><path d="M604.5,619.9L521.8,648.7L514.5,719.2L589.9,760.7L672.6,731.8L679.9,661.4Z" fill="#B4FF0D" fill-opacity="0.13" stroke="#B4FF0D" stroke-opacity="0.35"/><path d="M514.5,719.2L431.7,748.0L424.4,818.5L499.9,860.0L582.6,831.1L589.9,760.7Z" fill="#B4FF0D" fill-opacity="0.13" stroke="#B4FF0D" stroke-opacity="0.35"/><path d="M356.3,706.5L273.6,735.4L266.3,805.8L341.7,847.3L424.4,818.5L431.7,748.0Z" fill="#B4FF0D" fill-opacity="0.13" stroke="#B4FF0D" stroke-opacity="0.35"/><path d="M198.2,693.8L115.4,722.7L108.1,793.1L183.6,834.7L266.3,805.8L273.6,735.4Z" fill="#B4FF0D" fill-opacity="0.13" stroke="#B4FF0D" stroke-opacity="0.35"/><path d="M130.0,581.9L47.3,610.7L40.0,681.2L115.4,722.7L198.2,693.8L205.5,623.4Z" fill="#B4FF0D" fill-opacity="0.13" stroke="#B4FF0D" stroke-opacity="0.35"/><path d="M220.1,482.5L137.3,511.4L130.0,581.9L205.5,623.4L288.2,594.5L295.5,524.1Z" fill="#B4FF0D" fill-opacity="0.13" stroke="#B4FF0D" stroke-opacity="0.35"/>
<polyline points="294.7,456.2 295.2,455.2 296.1,452.6 296.4,451.9 298.9,450.3 301.0,449.0 301.8,447.6 302.3,446.9 304.8,445.0 306.8,445.4 307.7,444.1 307.6,443.3 309.7,440.2 311.3,438.9 311.9,439.0 313.4,436.4 316.6,435.9 318.0,435.6 317.9,433.2 318.4,432.7 321.3,431.7 321.3,430.1 322.8,428.6 325.6,428.9 327.1,426.8 329.8,425.7 331.4,423.9 331.6,422.7 334.3,422.3 334.2,421.0 338.0,421.2 339.1,420.2 341.6,418.2 341.1,416.9 343.6,415.7 346.3,415.3 346.8,414.6 348.3,412.1 351.4,412.5 353.3,411.1 355.0,409.9 356.1,408.8 359.3,406.6 360.6,406.0 364.4,406.3 365.5,404.8 366.2,404.2 369.4,402.9 371.7,400.6 372.4,399.6 376.0,398.7 377.4,398.2 379.0,396.8 382.0,395.6 384.1,395.6 385.0,394.4 388.8,393.0 390.3,392.7 392.8,390.5 396.2,389.2 396.7,388.4 398.5,387.5 400.4,387.1 403.0,386.4 406.2,384.4 408.7,384.1 410.9,383.1 413.7,382.5 415.7,381.1 416.5,380.7 420.6,379.6 420.8,379.6 424.7,378.3 425.2,377.1 427.6,377.5 432.1,376.9 432.1,376.4 436.2,374.2 438.2,373.9 441.2,374.4 442.5,373.0 446.7,372.9 448.0,372.1 450.3,371.5 453.3,370.7 456.0,371.4 459.6,371.2 460.6,369.7 463.8,370.2 466.9,368.7 469.8,369.8 472.2,368.7 473.0,369.4 477.5,368.8 478.3,369.1 483.0,368.2 483.7,368.6 488.3,368.9 491.9,369.1 492.1,368.5 495.1,369.5 499.8,369.0 502.8,368.6 503.1,369.4 505.8,369.4 511.0,369.4 511.6,371.1 514.5,370.3 518.2,370.7 519.8,371.3 523.2,372.7 525.7,372.5 527.8,373.7 530.2,373.9 533.2,374.0 535.3,374.9 538.2,375.0 541.2,377.3 542.9,377.2 544.5,377.2 548.0,379.0 550.9,379.1 551.9,379.4 555.6,381.2 557.3,381.0 560.4,383.5 561.7,383.3 564.2,383.8 565.6,386.3 568.4,386.3 570.7,387.6 574.1,387.7 575.7,389.2 578.2,391.1 578.5,390.8 581.3,392.1 583.1,393.7 584.6,395.5 586.1,395.1 589.0,396.5 591.1,398.4 593.9,398.4 594.4,399.8 597.4,401.8 600.3,403.1 600.1,404.0 604.4,406.5 604.1,407.6 607.2,408.1 610.1,410.1 611.5,410.9 613.4,412.2 614.9,413.0 615.3,415.3 617.3,416.9 621.3,418.6 621.6,419.4 624.4,421.6 624.9,422.5 626.5,424.4 629.0,425.7 629.1,427.6 633.0,429.5 634.4,431.1 634.9,432.2 637.9,433.0 639.5,435.4 638.9,436.9 642.6,437.9 643.5,439.9 643.1,441.2 644.6,443.7 647.7,445.5 647.2,447.2 648.2,448.1 649.6,449.9 650.6,451.9 654.1,453.7 654.1,455.7 656.0,457.2 656.3,457.5 658.2,459.2 659.6,461.6 660.7,463.5 662.4,465.0 662.6,467.2 664.5,468.2 664.3,469.8 665.2,472.0 667.9,473.5 667.9,475.2 668.5,475.2 668.7,477.9 669.6,479.5 671.2,480.8 672.9,481.7 674.4,483.5 676.4,484.8 677.1,486.4 677.1,489.0 679.5,490.9 679.5,492.7 681.2,493.8 682.5,495.2 683.4,496.7 684.7,497.5 684.4,499.5 687.1,502.2 688.2,503.3 688.2,503.6 688.2,506.1 689.4,508.2 691.6,509.2 691.3,510.4 693.1,512.9 694.9,514.5 695.9,516.3 695.4,516.2 696.0,518.8 697.3,520.6 698.1,522.2 700.2,523.0 699.9,525.3 701.8,527.0 701.4,527.8 703.2,531.1 703.5,531.2 703.9,534.0 704.7,535.8 706.3,537.9 707.6,539.7 706.7,540.6 708.1,543.3 707.8,545.2 709.2,546.7 709.4,547.5 711.0,549.2 710.5,551.7 712.3,552.6 711.8,555.7 713.1,556.9 711.8,558.0 713.5,560.6 713.9,561.6 713.0,564.8 714.3,565.7 714.7,567.2 713.8,569.9 714.0,571.8 714.6,573.9 716.0,576.3 714.8,576.4 715.0,579.8 714.4,580.0 716.1,582.4 715.2,584.9 715.8,586.5 716.8,587.3 715.7,589.2 716.9,591.9 716.8,594.6 716.8,595.1 717.3,597.4 715.8,599.8 716.3,600.5 715.6,602.0 716.1,603.5 716.1,605.5 715.8,607.1 715.6,610.6 715.3,611.6 714.8,613.6 715.6,615.0 715.2,616.3 713.8,617.3 713.0,620.8 712.8,620.7 713.1,622.6 712.4,625.1 712.3,627.4 710.9,628.2 710.1,629.5 710.7,631.1 710.0,633.3 708.6,635.7 707.6,636.5 707.2,638.1 707.0,639.8 705.2,642.0 703.2,643.7 703.2,643.9 702.0,645.9 702.0,648.0 698.5,650.3 697.4,651.0 696.5,653.4 696.9,655.2 694.1,655.6 694.4,656.7 691.2,662.5 692.5,663.9 686.9,667.5 685.9,669.2 684.3,670.9 684.0,672.6 681.9,674.2 681.9,675.6 679.0,676.1 679.5,678.1 677.2,678.5 675.0,679.6 673.3,681.5 673.7,683.2 670.3,683.8 669.6,686.5 667.7,687.5 667.9,687.4 665.1,690.1 664.4,691.9 663.0,693.3 661.4,694.4 658.1,694.4 656.8,695.5 657.0,697.7 655.2,699.0 653.7,700.5 651.5,702.1 649.3,702.6 649.5,704.6 648.1,704.9 645.2,707.4 643.2,707.4 643.5,709.2 641.5,710.2 638.4,712.2 637.8,713.5 636.5,713.0 635.9,716.1 633.1,716.1 632.3,718.4 630.8,718.8 628.1,719.6 626.1,721.6 626.0,722.9 622.9,723.2 621.2,724.9 620.4,725.5 619.8,727.5 617.2,727.4 614.8,729.3 615.0,729.2 611.2,730.5 610.6,731.6 607.8,732.6 606.4,734.9 606.5,735.0 604.4,735.0 600.9,736.0 599.5,738.1 599.4,739.7 596.9,739.5 595.8,740.7 593.1,741.5 591.2,742.2 589.7,743.0 585.8,745.0 585.1,744.9 583.5,745.2 580.5,746.7 579.0,747.0 576.9,748.4 576.1,748.2 571.9,749.3 570.8,749.8 568.7,750.0 568.0,751.0 564.4,752.3 564.5,753.7 562.7,753.3 558.3,754.7 556.3,754.7 555.8,756.2 552.8,756.2 552.4,756.4 549.0,758.0 546.9,759.6 545.8,759.7 543.4,759.5 543.5,760.8 539.5,760.6 538.8,761.0 535.5,761.9 533.4,763.9 532.9,763.1 532.2,764.9 528.1,765.1 525.8,765.6 524.5,766.7 524.4,766.6 522.0,767.1 519.2,767.3 516.7,768.6 515.7,768.6 512.1,769.1 510.4,769.9 509.1,771.2 506.4,771.8 505.0,772.5 503.4,771.6 502.3,773.4 497.8,772.4 497.7,774.1 494.0,774.8 493.2,774.5 489.9,775.8 489.4,776.2 487.0,776.6 484.3,776.4 482.8,777.0 479.7,776.2 477.6,777.0 476.0,778.5 474.3,778.8 469.5,778.9 469.4,777.9 465.1,778.7 463.8,778.2 461.8,780.3 460.8,780.6 456.1,780.7 456.0,779.9 451.5,781.0 451.6,780.3 449.0,780.0 444.8,780.4 442.7,781.2 441.3,781.6 439.3,782.4 436.7,782.3 436.0,781.2 432.3,781.6 430.7,782.1 429.2,782.6 426.4,782.9 423.1,782.8 421.5,783.3 420.1,783.5 418.1,783.1 416.6,782.6 414.3,783.5 411.1,783.2 408.6,782.7 407.9,783.1 405.3,783.2 403.1,782.9 400.9,783.9 398.6,783.6 396.7,784.9 394.6,784.6 390.2,784.8 389.4,785.0 386.2,784.3 384.8,785.7 381.7,785.2 378.6,785.4 376.3,784.6 375.1,786.0 372.1,784.7 370.8,784.8 366.8,785.9 363.9,785.2 361.2,786.7 358.4,785.3 356.0,787.0 353.3,785.9 350.4,786.8 348.0,787.2 346.6,787.0 344.5,785.8 340.7,786.7 338.4,786.9 335.6,786.7 332.9,787.1 330.6,786.2 327.1,786.2 324.0,785.5 322.9,785.3 319.7,786.7 317.3,786.6 314.1,786.3 312.0,785.6 307.2,785.8 306.8,785.6 302.6,784.7 300.2,783.9 297.8,784.5 295.2,783.4 292.1,782.7 290.7,782.8 286.3,781.5 284.0,782.3 281.4,781.8 279.8,780.3 277.6,780.2 275.4,779.3 271.5,779.2 268.7,779.1 265.4,778.2 264.4,776.6 260.9,776.1 258.9,775.0 255.7,775.1 253.6,773.3 252.6,773.5 250.2,772.2 247.5,770.8 243.1,769.1 243.0,768.8 239.0,769.1 237.3,767.7 234.3,766.8 231.8,765.9 230.4,764.1 227.4,763.5 224.8,761.6 222.6,761.4 219.1,759.9 216.7,758.9 215.0,756.7 212.7,756.5 210.2,754.5 208.9,753.4 206.7,752.4 205.2,750.0 203.3,748.1 200.1,747.1 197.4,746.2 195.8,743.8 193.1,742.4 190.8,740.9 190.5,740.6 187.4,738.9 187.4,736.6 183.3,736.0 181.5,733.1 180.4,732.7 179.6,731.0 178.0,727.8 176.2,727.8 175.7,726.1 172.7,723.5 173.2,722.1 171.3,719.9 170.3,717.9 167.0,716.8 167.1,714.8 167.0,712.7 166.5,710.2 164.1,708.9 163.0,707.5 162.3,704.1 161.9,702.7 162.3,700.2 160.0,698.0 158.8,696.3 160.0,694.1 158.6,692.6 158.6,689.5 156.8,687.9 157.9,686.7 157.7,683.7 157.4,681.0 156.8,679.1 156.2,677.1 156.5,676.5 155.4,672.9 155.8,670.5 154.9,669.8 155.9,667.5 155.7,665.0 155.9,662.0 156.1,661.0 155.8,658.1 156.2,655.8 155.2,653.8 155.2,652.4 156.1,649.6 156.0,647.9 155.8,645.0 157.0,643.5 156.2,641.2 157.6,639.7 158.2,636.7 158.0,634.9 157.8,633.9 158.2,631.3 158.1,628.6 160.1,626.9 159.6,624.5 160.8,622.9 160.6,620.3 162.9,618.1 162.5,617.5 164.8,615.7 165.5,613.9 166.0,611.1 166.4,608.8 165.8,608.9 167.9,606.7 167.5,604.5 168.8,603.5 170.4,600.5 170.3,598.3 173.0,598.3 172.9,596.1 173.9,594.2 174.0,591.8 177.7,590.6 177.6,589.9 177.8,588.2 178.9,586.0 181.1,584.5 181.9,581.6 184.3,580.0 183.7,578.6 186.0,576.9 188.1,576.6 189.2,574.0 190.4,573.4 191.5,571.8 191.1,568.8 191.4,567.2 193.0,566.6 196.2,564.3 196.4,563.1 196.3,561.0 198.9,560.0 199.0,558.7 199.4,556.7 201.7,555.6 201.5,554.0 203.1,552.0 204.4,551.0 204.7,549.1 205.4,548.1 208.3,546.1 209.7,546.0 210.4,544.6 211.2,542.1 212.1,541.6 213.6,539.4 213.4,538.0 215.5,536.8 215.6,535.2 215.8,533.4 218.1,532.6 218.0,530.9 219.6,528.6 220.2,527.5 221.0,526.3 224.5,526.0 224.5,523.4 225.5,521.5 226.5,521.7 226.6,519.2 229.2,519.4 230.8,518.1 230.2,516.1 231.8,514.2 234.4,512.3 235.0,512.2 236.8,511.0 237.4,510.4 237.6,508.1 238.1,507.6 239.2,506.4 242.1,505.0 242.9,504.1" fill="none" stroke="#0A0B09" stroke-width="9" stroke-linejoin="round" stroke-linecap="round"/>
<polyline points="294.7,456.2 295.2,455.2 296.1,452.6 296.4,451.9 298.9,450.3 301.0,449.0 301.8,447.6 302.3,446.9 304.8,445.0 306.8,445.4 307.7,444.1 307.6,443.3 309.7,440.2 311.3,438.9 311.9,439.0 313.4,436.4 316.6,435.9 318.0,435.6 317.9,433.2 318.4,432.7 321.3,431.7 321.3,430.1 322.8,428.6 325.6,428.9 327.1,426.8 329.8,425.7 331.4,423.9 331.6,422.7 334.3,422.3 334.2,421.0 338.0,421.2 339.1,420.2 341.6,418.2 341.1,416.9 343.6,415.7 346.3,415.3 346.8,414.6 348.3,412.1 351.4,412.5 353.3,411.1 355.0,409.9 356.1,408.8 359.3,406.6 360.6,406.0 364.4,406.3 365.5,404.8 366.2,404.2 369.4,402.9 371.7,400.6 372.4,399.6 376.0,398.7 377.4,398.2 379.0,396.8 382.0,395.6 384.1,395.6 385.0,394.4 388.8,393.0 390.3,392.7 392.8,390.5 396.2,389.2 396.7,388.4 398.5,387.5 400.4,387.1 403.0,386.4 406.2,384.4 408.7,384.1 410.9,383.1 413.7,382.5 415.7,381.1 416.5,380.7 420.6,379.6 420.8,379.6 424.7,378.3 425.2,377.1 427.6,377.5 432.1,376.9 432.1,376.4 436.2,374.2 438.2,373.9 441.2,374.4 442.5,373.0 446.7,372.9 448.0,372.1 450.3,371.5 453.3,370.7 456.0,371.4 459.6,371.2 460.6,369.7 463.8,370.2 466.9,368.7 469.8,369.8 472.2,368.7 473.0,369.4 477.5,368.8 478.3,369.1 483.0,368.2 483.7,368.6 488.3,368.9 491.9,369.1 492.1,368.5 495.1,369.5 499.8,369.0 502.8,368.6 503.1,369.4 505.8,369.4 511.0,369.4 511.6,371.1 514.5,370.3 518.2,370.7 519.8,371.3 523.2,372.7 525.7,372.5 527.8,373.7 530.2,373.9 533.2,374.0 535.3,374.9 538.2,375.0 541.2,377.3 542.9,377.2 544.5,377.2 548.0,379.0 550.9,379.1 551.9,379.4 555.6,381.2 557.3,381.0 560.4,383.5 561.7,383.3 564.2,383.8 565.6,386.3 568.4,386.3 570.7,387.6 574.1,387.7 575.7,389.2 578.2,391.1 578.5,390.8 581.3,392.1 583.1,393.7 584.6,395.5 586.1,395.1 589.0,396.5 591.1,398.4 593.9,398.4 594.4,399.8 597.4,401.8 600.3,403.1 600.1,404.0 604.4,406.5 604.1,407.6 607.2,408.1 610.1,410.1 611.5,410.9 613.4,412.2 614.9,413.0 615.3,415.3 617.3,416.9 621.3,418.6 621.6,419.4 624.4,421.6 624.9,422.5 626.5,424.4 629.0,425.7 629.1,427.6 633.0,429.5 634.4,431.1 634.9,432.2 637.9,433.0 639.5,435.4 638.9,436.9 642.6,437.9 643.5,439.9 643.1,441.2 644.6,443.7 647.7,445.5 647.2,447.2 648.2,448.1 649.6,449.9 650.6,451.9 654.1,453.7 654.1,455.7 656.0,457.2 656.3,457.5 658.2,459.2 659.6,461.6 660.7,463.5 662.4,465.0 662.6,467.2 664.5,468.2 664.3,469.8 665.2,472.0 667.9,473.5 667.9,475.2 668.5,475.2 668.7,477.9 669.6,479.5 671.2,480.8 672.9,481.7 674.4,483.5 676.4,484.8 677.1,486.4 677.1,489.0 679.5,490.9 679.5,492.7 681.2,493.8 682.5,495.2 683.4,496.7 684.7,497.5 684.4,499.5 687.1,502.2 688.2,503.3 688.2,503.6 688.2,506.1 689.4,508.2 691.6,509.2 691.3,510.4 693.1,512.9 694.9,514.5 695.9,516.3 695.4,516.2 696.0,518.8 697.3,520.6 698.1,522.2 700.2,523.0 699.9,525.3 701.8,527.0 701.4,527.8 703.2,531.1 703.5,531.2 703.9,534.0 704.7,535.8 706.3,537.9 707.6,539.7 706.7,540.6 708.1,543.3 707.8,545.2 709.2,546.7 709.4,547.5 711.0,549.2 710.5,551.7 712.3,552.6 711.8,555.7 713.1,556.9 711.8,558.0 713.5,560.6 713.9,561.6 713.0,564.8 714.3,565.7 714.7,567.2 713.8,569.9 714.0,571.8 714.6,573.9 716.0,576.3 714.8,576.4 715.0,579.8 714.4,580.0 716.1,582.4 715.2,584.9 715.8,586.5 716.8,587.3 715.7,589.2 716.9,591.9 716.8,594.6 716.8,595.1 717.3,597.4 715.8,599.8 716.3,600.5 715.6,602.0 716.1,603.5 716.1,605.5 715.8,607.1 715.6,610.6 715.3,611.6 714.8,613.6 715.6,615.0 715.2,616.3 713.8,617.3 713.0,620.8 712.8,620.7 713.1,622.6 712.4,625.1 712.3,627.4 710.9,628.2 710.1,629.5 710.7,631.1 710.0,633.3 708.6,635.7 707.6,636.5 707.2,638.1 707.0,639.8 705.2,642.0 703.2,643.7 703.2,643.9 702.0,645.9 702.0,648.0 698.5,650.3 697.4,651.0 696.5,653.4 696.9,655.2 694.1,655.6 694.4,656.7 691.2,662.5 692.5,663.9 686.9,667.5 685.9,669.2 684.3,670.9 684.0,672.6 681.9,674.2 681.9,675.6 679.0,676.1 679.5,678.1 677.2,678.5 675.0,679.6 673.3,681.5 673.7,683.2 670.3,683.8 669.6,686.5 667.7,687.5 667.9,687.4 665.1,690.1 664.4,691.9 663.0,693.3 661.4,694.4 658.1,694.4 656.8,695.5 657.0,697.7 655.2,699.0 653.7,700.5 651.5,702.1 649.3,702.6 649.5,704.6 648.1,704.9 645.2,707.4 643.2,707.4 643.5,709.2 641.5,710.2 638.4,712.2 637.8,713.5 636.5,713.0 635.9,716.1 633.1,716.1 632.3,718.4 630.8,718.8 628.1,719.6 626.1,721.6 626.0,722.9 622.9,723.2 621.2,724.9 620.4,725.5 619.8,727.5 617.2,727.4 614.8,729.3 615.0,729.2 611.2,730.5 610.6,731.6 607.8,732.6 606.4,734.9 606.5,735.0 604.4,735.0 600.9,736.0 599.5,738.1 599.4,739.7 596.9,739.5 595.8,740.7 593.1,741.5 591.2,742.2 589.7,743.0 585.8,745.0 585.1,744.9 583.5,745.2 580.5,746.7 579.0,747.0 576.9,748.4 576.1,748.2 571.9,749.3 570.8,749.8 568.7,750.0 568.0,751.0 564.4,752.3 564.5,753.7 562.7,753.3 558.3,754.7 556.3,754.7 555.8,756.2 552.8,756.2 552.4,756.4 549.0,758.0 546.9,759.6 545.8,759.7 543.4,759.5 543.5,760.8 539.5,760.6 538.8,761.0 535.5,761.9 533.4,763.9 532.9,763.1 532.2,764.9 528.1,765.1 525.8,765.6 524.5,766.7 524.4,766.6 522.0,767.1 519.2,767.3 516.7,768.6 515.7,768.6 512.1,769.1 510.4,769.9 509.1,771.2 506.4,771.8 505.0,772.5 503.4,771.6 502.3,773.4 497.8,772.4 497.7,774.1 494.0,774.8 493.2,774.5 489.9,775.8 489.4,776.2 487.0,776.6 484.3,776.4 482.8,777.0 479.7,776.2 477.6,777.0 476.0,778.5 474.3,778.8 469.5,778.9 469.4,777.9 465.1,778.7 463.8,778.2 461.8,780.3 460.8,780.6 456.1,780.7 456.0,779.9 451.5,781.0 451.6,780.3 449.0,780.0 444.8,780.4 442.7,781.2 441.3,781.6 439.3,782.4 436.7,782.3 436.0,781.2 432.3,781.6 430.7,782.1 429.2,782.6 426.4,782.9 423.1,782.8 421.5,783.3 420.1,783.5 418.1,783.1 416.6,782.6 414.3,783.5 411.1,783.2 408.6,782.7 407.9,783.1 405.3,783.2 403.1,782.9 400.9,783.9 398.6,783.6 396.7,784.9 394.6,784.6 390.2,784.8 389.4,785.0 386.2,784.3 384.8,785.7 381.7,785.2 378.6,785.4 376.3,784.6 375.1,786.0 372.1,784.7 370.8,784.8 366.8,785.9 363.9,785.2 361.2,786.7 358.4,785.3 356.0,787.0 353.3,785.9 350.4,786.8 348.0,787.2 346.6,787.0 344.5,785.8 340.7,786.7 338.4,786.9 335.6,786.7 332.9,787.1 330.6,786.2 327.1,786.2 324.0,785.5 322.9,785.3 319.7,786.7 317.3,786.6 314.1,786.3 312.0,785.6 307.2,785.8 306.8,785.6 302.6,784.7 300.2,783.9 297.8,784.5 295.2,783.4 292.1,782.7 290.7,782.8 286.3,781.5 284.0,782.3 281.4,781.8 279.8,780.3 277.6,780.2 275.4,779.3 271.5,779.2 268.7,779.1 265.4,778.2 264.4,776.6 260.9,776.1 258.9,775.0 255.7,775.1 253.6,773.3 252.6,773.5 250.2,772.2 247.5,770.8 243.1,769.1 243.0,768.8 239.0,769.1 237.3,767.7 234.3,766.8 231.8,765.9 230.4,764.1 227.4,763.5 224.8,761.6 222.6,761.4 219.1,759.9 216.7,758.9 215.0,756.7 212.7,756.5 210.2,754.5 208.9,753.4 206.7,752.4 205.2,750.0 203.3,748.1 200.1,747.1 197.4,746.2 195.8,743.8 193.1,742.4 190.8,740.9 190.5,740.6 187.4,738.9 187.4,736.6 183.3,736.0 181.5,733.1 180.4,732.7 179.6,731.0 178.0,727.8 176.2,727.8 175.7,726.1 172.7,723.5 173.2,722.1 171.3,719.9 170.3,717.9 167.0,716.8 167.1,714.8 167.0,712.7 166.5,710.2 164.1,708.9 163.0,707.5 162.3,704.1 161.9,702.7 162.3,700.2 160.0,698.0 158.8,696.3 160.0,694.1 158.6,692.6 158.6,689.5 156.8,687.9 157.9,686.7 157.7,683.7 157.4,681.0 156.8,679.1 156.2,677.1 156.5,676.5 155.4,672.9 155.8,670.5 154.9,669.8 155.9,667.5 155.7,665.0 155.9,662.0 156.1,661.0 155.8,658.1 156.2,655.8 155.2,653.8 155.2,652.4 156.1,649.6 156.0,647.9 155.8,645.0 157.0,643.5 156.2,641.2 157.6,639.7 158.2,636.7 158.0,634.9 157.8,633.9 158.2,631.3 158.1,628.6 160.1,626.9 159.6,624.5 160.8,622.9 160.6,620.3 162.9,618.1 162.5,617.5 164.8,615.7 165.5,613.9 166.0,611.1 166.4,608.8 165.8,608.9 167.9,606.7 167.5,604.5 168.8,603.5 170.4,600.5 170.3,598.3 173.0,598.3 172.9,596.1 173.9,594.2 174.0,591.8 177.7,590.6 177.6,589.9 177.8,588.2 178.9,586.0 181.1,584.5 181.9,581.6 184.3,580.0 183.7,578.6 186.0,576.9 188.1,576.6 189.2,574.0 190.4,573.4 191.5,571.8 191.1,568.8 191.4,567.2 193.0,566.6 196.2,564.3 196.4,563.1 196.3,561.0 198.9,560.0 199.0,558.7 199.4,556.7 201.7,555.6 201.5,554.0 203.1,552.0 204.4,551.0 204.7,549.1 205.4,548.1 208.3,546.1 209.7,546.0 210.4,544.6 211.2,542.1 212.1,541.6 213.6,539.4 213.4,538.0 215.5,536.8 215.6,535.2 215.8,533.4 218.1,532.6 218.0,530.9 219.6,528.6 220.2,527.5 221.0,526.3 224.5,526.0 224.5,523.4 225.5,521.5 226.5,521.7 226.6,519.2 229.2,519.4 230.8,518.1 230.2,516.1 231.8,514.2 234.4,512.3 235.0,512.2 236.8,511.0 237.4,510.4 237.6,508.1 238.1,507.6 239.2,506.4 242.1,505.0 242.9,504.1" fill="none" stroke="#B4FF0D" stroke-width="5" stroke-linejoin="round" stroke-linecap="round"/>
<circle cx="294.7" cy="456.2" r="9" fill="#B4FF0D" stroke="#FAFAF7" stroke-width="3"/>
<text x="40" y="886" fill="#8A8F84" font-family="monospace" font-size="17">Porto · 12:00 · 1.53 km · 14 zones couloir + 5 interieur · 224 pts · banc d'essai</text>
</svg>